<?xml version="1.0" encoding="utf-8" ?><svg xmlns="http://www.w3.org/2000/svg" xmlns:xlink="http://www.w3.org/1999/xlink" width="1024" height="1024" viewBox="0 0 1024 1024"><path fill="#2C1F19" d="M419.262 464.215L420.392 464.211C423.228 466.698 434.133 482.85 436.729 486.682C442.497 495.197 448.959 503.766 454.757 512.203C444.487 527.416 431.578 544.451 420.712 559.564C397.929 556.221 374.117 551.929 351.357 548.144L205.49 523.75L163.129 516.989C154.436 515.585 140.778 513.046 132.3 512.809C139.777 510.522 157.367 507.997 165.622 506.601L232.867 495.424L301.162 484C339.795 477.181 380.492 469.596 419.262 464.215Z"/><path fill="#2C1F19" d="M603.802 463.749C606.259 463.875 613.649 465.394 616.42 465.877L641.314 470.062L734.367 486.072L829.925 502.12L866.016 507.842C871.993 508.812 884.075 510.487 889.166 512.569C867.826 516.874 841.552 520.244 819.493 523.749L688.572 545.631C660.672 550.352 631.785 555.526 603.784 559.256C592.656 544.834 580.127 526.84 569.833 511.802C580.951 495.64 592.275 479.621 603.802 463.749Z"/><path fill="#2C1F19" d="M512.702 135.951C512.523 139.112 515.694 157.308 516.304 161.047L523.718 207.821L547.317 356.396C550.771 378.646 554.349 400.877 558.052 423.088C543.055 433.935 527.892 445.833 512.799 456.807C504.643 451.348 495.527 444.226 487.432 438.436C481.947 434.512 471.559 427.193 466.862 423.004C468.155 411.945 470.281 399.848 471.99 388.788L486.112 302.297C494.79 248.398 502.803 194.405 511.237 140.472C511.559 138.416 511.529 137.562 512.702 135.951Z"/><path fill="#2C1F19" d="M511.823 568.049C514.745 569.44 527.261 578.949 530.312 581.298C539.254 588.182 549.726 595.235 558.247 602.44C553.35 628.327 549.147 656.368 544.949 682.507C538.738 719.819 532.772 757.171 527.05 794.562L517.244 857.116C515.824 866.234 513.157 879.151 512.678 888.027C511.061 885.251 506.385 851.373 505.48 845.713L480.002 685.011L472.788 639.501C471.325 629.659 468.845 610.914 466.322 601.893C481.239 590.696 496.692 578.892 511.823 568.049Z"/><path fill="#2C1F19" d="M535.475 191.945C576.415 195.202 617.103 202.81 658.248 203.036C669.703 203.099 681.17 203.064 692.626 203.067L772.477 203.242C772.112 227.085 773.119 251.246 772.795 275.044L848.507 274.968C848.137 292.728 848.432 310.788 848.328 328.609L848.109 493.553C844.373 492.718 839.249 492.03 835.328 491.328C835.215 475.03 835.771 458.27 835.875 441.917C836.012 407.632 835.92 373.346 835.598 339.062C835.502 322.138 835.844 304.969 835.459 288.087C814.848 287.854 793.353 287.777 772.753 287.983C773.336 302.191 772.835 319.523 772.821 333.923L772.923 421.125C772.943 440.506 772.44 460.544 772.877 479.855L760.069 477.244L760.026 287.994L689.339 288.032C671.085 288.084 651.293 288.721 633.154 287.195C605.04 284.831 576.834 280.998 548.786 277.937C547.798 273.654 546.992 269.891 546.246 265.564C584.418 268.465 622.522 275.064 660.804 275.115C668.967 275.126 677.135 275.075 685.299 275.069L759.74 275.053C760.055 255.507 760.146 235.958 760.012 216.41C749.538 215.328 734.866 216.193 724.12 216.132C680.559 215.887 638.705 218.245 595.46 211.05C577.109 207.997 556.425 207.357 537.696 204.86C536.811 200.775 536.13 196.087 535.475 191.945Z"/><path fill="#2C1F19" d="M176.512 530.977L188.979 532.873L189.077 808.283L314.301 808.474C324.824 808.478 336.583 808.927 346.994 808.449C394.775 806.256 440.793 816.091 488.157 819.655C488.769 823.411 489.416 827.161 490.098 830.904C490.334 831.761 490.284 831.267 490.078 832.394C488.282 832.95 463.071 830.028 459.375 829.515C415.751 823.457 375.054 821.074 331.033 821.062L262.029 821.058L206.271 821.068C198.172 821.07 184.172 820.671 176.469 821.381C177.22 810.331 176.683 794.72 176.557 783.436L176.485 736.484L176.487 600.581C176.328 577.38 176.336 554.178 176.512 530.977Z"/><path fill="#2C1F19" d="M844.349 533.685C845.758 533.511 846.657 533.2 847.821 533.93C848.536 539.359 848.133 560.698 848.143 567.618L848.205 638.057L848.143 725.599C848.157 734.089 847.876 743.384 848.22 751.809C849.558 784.634 841.138 812.917 812.997 832.746C803.686 839.444 793.025 844.028 781.759 846.178C772.374 847.951 761.78 847.624 752.184 847.598L721.787 847.516L665.198 847.604C653.209 847.655 640.804 848.146 628.894 847.432C615.72 846.643 602.111 844.504 588.978 842.788C572.986 840.697 556.266 838.998 540.381 836.298C538.688 836.188 538.08 836.277 536.584 835.437C534.623 832.629 536.23 827.226 536.669 823.159C573.233 826.434 609.216 834.701 645.998 834.906C657.13 834.968 668.288 834.941 679.423 834.94L758.499 834.913C780.712 834.895 798.981 831.169 815.143 814.851C824.728 805.301 831.204 793.078 833.722 779.785C836.211 767.146 835.7 750.658 835.588 737.62L835.413 696.055L835.093 535.253C837.618 534.642 841.659 534.11 844.349 533.685Z"/><path fill="#2C1F19" d="M265.163 176.771C292.579 175.558 322.784 176.56 350.371 176.808C367.691 176.963 387.442 176.003 404.37 177.306C431.768 179.415 462.462 186.387 489.733 188.193C489.31 192.461 488.683 196.707 487.856 200.916C458.157 197.805 427.38 192.058 397.837 189.588C383.271 188.37 360.483 189.137 345.231 189.142L261.993 189.131C241.65 189.271 222.059 195.966 207.743 210.693C190.818 228.103 188.775 246.839 189.09 269.964C188.955 289.918 188.985 309.873 189.182 329.826L189.142 411.51L189.108 462.479C189.105 470.017 188.739 483.456 189.506 490.433C185.348 491.361 180.632 491.809 176.365 492.319C177.097 445 177.187 397.674 176.635 350.353C176.255 325.249 176.518 300.083 176.217 274.977C176.066 262.318 176.006 247.819 179.427 235.652C187.382 207.365 211.721 184.32 240.682 178.673C249.649 176.892 256.194 176.821 265.163 176.771Z"/><path fill="#2C1F19" d="M253.066 542.575C256.848 543.531 261.662 544.231 265.576 544.907C266.096 560.14 265.871 576.547 265.911 591.844L266.092 679.256C266.082 697.857 265.754 717.607 266.234 736.116C284.487 735.625 302.906 736.056 321.192 735.804C344.076 735.487 366.59 734.8 389.445 736.179C418.269 737.919 448.496 744.764 476.897 746.617C477.307 749 478.79 757.591 478.412 759.468C470.925 758.947 463.244 757.447 455.743 756.705C427.41 754.399 397.354 748.026 369.002 748.546C330.598 749.252 291.349 747.226 253.116 748.372L253.066 542.575Z"/><path fill="#2C1F19" d="M766.276 543.306C768.882 542.96 769.494 542.791 772.042 543.107C774.161 545.881 772.016 658.097 772.964 672.089C773.279 676.74 772.909 695.475 772.454 700.879C770.635 722.073 760.426 741.663 744.096 755.295C720.307 775.114 695.836 773.177 666.988 772.705C654.701 772.505 642.291 773.809 629.646 772.756C604.422 770.656 578.399 765.664 553.37 763.405C550.737 763.093 548.106 762.763 545.477 762.414C545.945 758.131 546.292 754.383 547.254 750.162C564.863 752.018 583.78 753.992 601.225 756.5C624.373 759.828 642.562 760.453 665.811 760.045C695.197 759.53 719.963 764.167 742.307 739.692C761.935 718.191 760.121 695.135 760.099 668.254L760.095 627.545L760.127 574.593C760.132 564.958 760.428 553.748 759.947 544.325C761.988 543.922 764.207 543.624 766.276 543.306Z"/><path fill="#2C1F19" d="M327.097 250.706C339.388 250.2 352.253 251.396 364.353 250.801C403.383 248.883 439.883 256.241 478.577 259.816C478.23 264.075 477.82 268.328 477.344 272.574C451.495 270.232 426.029 265.918 400.501 263.667C380.9 262.087 360.793 264.105 341.263 263.207C300.277 261.323 265.968 285.147 265.928 328.616L265.991 477.071L253.05 478.793L253.139 370.317L253.111 340.831C253.103 337.322 253.114 333.7 253.098 330.202C252.895 285.368 283.931 254.72 327.097 250.706Z"/><path fill="#2C1F19" d="M462.361 523.297C464.378 524.738 471.673 536 473.822 538.517C482.644 548.845 490.339 553.825 501.492 560.885C466.903 588.095 426.065 616.079 389.839 641.565C382.154 646.818 374.188 652.751 366.589 658.205C374.222 645.881 384.402 631.876 392.774 619.836C407.213 598.73 422.057 577.906 437.3 557.373C445.486 546.392 453.771 533.586 462.361 523.297Z"/><path fill="#2C1F19" d="M561.653 523.3C566.137 525.84 648.878 644.416 656.753 656.595C649.102 651.681 640.39 645.345 632.759 640.104C629.586 637.62 625.632 634.958 622.255 632.662C588.487 609.702 556.355 584.288 522.951 560.887C543.758 549.331 547.683 542.595 561.653 523.3Z"/><path fill="#2C1F19" d="M369.127 369.14C377.597 371.059 489.39 453.367 500.152 463.456C492.78 467.682 485.991 473.053 479.781 478.831C473.212 485.367 468.118 492.179 462.67 499.607C458.672 495.329 453.723 488.025 450.194 483.097L436.198 463.921L388.527 397.186C382.006 387.913 375.734 378.308 369.127 369.14Z"/><path fill="#2C1F19" d="M655.309 367.995L655.746 368.353C645.904 381.393 636.795 395.231 627.153 408.44C605.044 438.73 584.374 470.434 561.674 500.261C556.012 491.112 552.409 486.142 544.836 478.668C537.712 472.261 531.002 468.369 522.879 463.499C540.159 449.67 561.435 434.73 579.446 421.767C604.256 403.911 629.872 384.793 655.309 367.995Z"/><path fill="#2C1F19" d="M329.471 556.828C333.735 557.256 338.258 558.002 342.493 558.675L342.265 676.512C382.023 676.227 424.101 677.919 463.438 676.473C463.709 680.78 463.922 685.111 464.479 689.388C457.835 688.831 448.809 689.366 441.856 689.462C430.61 689.57 419.364 689.577 408.119 689.483L359.909 689.204C350.891 689.137 338.262 688.76 329.519 689.481C329.012 645.628 329.465 600.739 329.471 556.828Z"/><path fill="#2C1F19" d="M622.806 333.995C629.931 334.555 641.947 334.185 649.379 334.174C664.987 334.109 680.596 334.17 696.203 334.358L696.155 421.836L696.151 449.905C696.157 455.007 695.973 461.928 696.558 466.857L683.505 464.63C682.594 454.065 683.168 435.345 683.173 424.268L683.153 347.14C642.242 346.5 600.545 346.871 559.455 346.468L557.42 334.396L597.93 334.334C605.532 334.334 614.516 334.527 622.013 334.007L622.806 333.995Z"/><path fill="#2C1F19" d="M694.648 558.72L695.704 558.989C696.491 560.096 696.59 560.99 696.532 562.466C696.08 573.958 696.225 585.769 696.201 597.252C696.142 625.398 698.56 648.362 677.058 670.078C654.979 692.376 631.585 689.467 602.919 689.065C588.494 688.863 573.78 689.41 559.375 689.487C558.811 689.468 559.201 689.509 558.252 689.14C557.684 686.2 559.2 678.609 559.719 675.464C581.283 676.506 603.617 675.609 625.264 676.499C641.011 677.146 656.212 673.017 667.529 661.584C686.05 642.872 683.577 622.957 683.414 598.953L683.293 560.208C687.083 559.756 690.869 559.26 694.648 558.72Z"/><path fill="#2C1F19" d="M394.701 334.21C410.087 333.934 425.476 333.876 440.863 334.035C447.804 334.061 458.151 334.395 464.789 333.831C463.899 339.137 463.594 342.404 463.245 347.742C462.414 347.688 461.582 347.651 460.75 347.631C444.308 347.229 427.692 347.356 411.263 347.093C392.217 347.062 372.59 346.165 358.076 360.644C344.156 374.53 342.475 388.337 342.177 406.875L342.059 441.955C342.042 448.702 341.788 457.743 342.449 464.24C338.134 464.885 333.811 465.481 329.482 466.027L329.357 424.622C329.294 399.585 327.041 376.453 345.087 356.171C359.164 340.351 374.181 335.502 394.701 334.21Z"/><path fill="#0C8179" d="M507.471 486.196C522.217 483.401 536.421 493.139 539.13 507.9C541.838 522.662 532.017 536.809 517.24 539.431C502.585 542.032 488.58 532.309 485.893 517.669C483.207 503.029 492.847 488.968 507.471 486.196Z"/></svg>